<mxfile host="65bd71144e">
    <diagram name="PÃ¡gina-1" id="xE0TEBMQ5XYxk7yZ9uWg">
        <mxGraphModel dx="1122" dy="787" grid="1" gridSize="10" guides="1" tooltips="1" connect="1" arrows="1" fold="1" page="1" pageScale="1" pageWidth="827" pageHeight="1169" math="0" shadow="0">
            <root>
                <mxCell id="0"/>
                <mxCell id="1" parent="0"/>
                <mxCell id="wbciZnofINHB3VEVdKxA-1" value="&lt;font style=&quot;font-size: 30px;&quot;&gt;0&lt;/font&gt;" style="ellipse;whiteSpace=wrap;html=1;aspect=fixed;" parent="1" vertex="1">
                    <mxGeometry x="220" y="180" width="80" height="80" as="geometry"/>
                </mxCell>
                <mxCell id="wbciZnofINHB3VEVdKxA-2" value="&lt;span style=&quot;font-size: 30px;&quot;&gt;1&lt;/span&gt;" style="ellipse;whiteSpace=wrap;html=1;aspect=fixed;" parent="1" vertex="1">
                    <mxGeometry x="470" y="180" width="80" height="80" as="geometry"/>
                </mxCell>
                <mxCell id="wbciZnofINHB3VEVdKxA-3" value="&lt;font style=&quot;font-size: 30px;&quot;&gt;3&lt;/font&gt;" style="ellipse;whiteSpace=wrap;html=1;aspect=fixed;" parent="1" vertex="1">
                    <mxGeometry x="470" y="430" width="80" height="80" as="geometry"/>
                </mxCell>
                <mxCell id="wbciZnofINHB3VEVdKxA-4" value="&lt;font style=&quot;font-size: 30px;&quot;&gt;2&lt;/font&gt;" style="ellipse;whiteSpace=wrap;html=1;aspect=fixed;" parent="1" vertex="1">
                    <mxGeometry x="220" y="430" width="80" height="80" as="geometry"/>
                </mxCell>
                <mxCell id="wbciZnofINHB3VEVdKxA-5" value="" style="endArrow=none;html=1;rounded=0;exitX=0.5;exitY=0;exitDx=0;exitDy=0;entryX=0.5;entryY=1;entryDx=0;entryDy=0;" parent="1" source="wbciZnofINHB3VEVdKxA-4" target="wbciZnofINHB3VEVdKxA-1" edge="1">
                    <mxGeometry width="50" height="50" relative="1" as="geometry">
                        <mxPoint x="380" y="360" as="sourcePoint"/>
                        <mxPoint x="430" y="310" as="targetPoint"/>
                    </mxGeometry>
                </mxCell>
                <mxCell id="wbciZnofINHB3VEVdKxA-6" value="" style="endArrow=none;html=1;rounded=0;exitX=1;exitY=0.5;exitDx=0;exitDy=0;entryX=0;entryY=0.5;entryDx=0;entryDy=0;" parent="1" source="wbciZnofINHB3VEVdKxA-1" target="wbciZnofINHB3VEVdKxA-2" edge="1">
                    <mxGeometry width="50" height="50" relative="1" as="geometry">
                        <mxPoint x="380" y="360" as="sourcePoint"/>
                        <mxPoint x="430" y="310" as="targetPoint"/>
                    </mxGeometry>
                </mxCell>
                <mxCell id="wbciZnofINHB3VEVdKxA-7" value="" style="endArrow=none;html=1;rounded=0;exitX=0.5;exitY=0;exitDx=0;exitDy=0;entryX=0.5;entryY=1;entryDx=0;entryDy=0;" parent="1" source="wbciZnofINHB3VEVdKxA-3" target="wbciZnofINHB3VEVdKxA-2" edge="1">
                    <mxGeometry width="50" height="50" relative="1" as="geometry">
                        <mxPoint x="380" y="360" as="sourcePoint"/>
                        <mxPoint x="430" y="310" as="targetPoint"/>
                    </mxGeometry>
                </mxCell>
                <mxCell id="wbciZnofINHB3VEVdKxA-8" value="" style="endArrow=none;html=1;rounded=0;exitX=0.075;exitY=0.175;exitDx=0;exitDy=0;exitPerimeter=0;entryX=1;entryY=1;entryDx=0;entryDy=0;" parent="1" source="wbciZnofINHB3VEVdKxA-3" target="wbciZnofINHB3VEVdKxA-1" edge="1">
                    <mxGeometry width="50" height="50" relative="1" as="geometry">
                        <mxPoint x="380" y="360" as="sourcePoint"/>
                        <mxPoint x="430" y="310" as="targetPoint"/>
                    </mxGeometry>
                </mxCell>
                <mxCell id="wbciZnofINHB3VEVdKxA-9" value="&lt;font style=&quot;font-size: 18px;&quot;&gt;0&lt;/font&gt;" style="text;html=1;align=center;verticalAlign=middle;whiteSpace=wrap;rounded=0;" parent="1" vertex="1">
                    <mxGeometry x="360" y="190" width="60" height="30" as="geometry"/>
                </mxCell>
                <mxCell id="wbciZnofINHB3VEVdKxA-10" value="&lt;font style=&quot;font-size: 18px;&quot;&gt;1&lt;/font&gt;" style="text;html=1;align=center;verticalAlign=middle;whiteSpace=wrap;rounded=0;" parent="1" vertex="1">
                    <mxGeometry x="210" y="330" width="60" height="30" as="geometry"/>
                </mxCell>
                <mxCell id="wbciZnofINHB3VEVdKxA-11" value="&lt;font style=&quot;font-size: 18px;&quot;&gt;2&lt;/font&gt;" style="text;html=1;align=center;verticalAlign=middle;whiteSpace=wrap;rounded=0;" parent="1" vertex="1">
                    <mxGeometry x="370" y="320" width="60" height="30" as="geometry"/>
                </mxCell>
                <mxCell id="wbciZnofINHB3VEVdKxA-12" value="&lt;font style=&quot;font-size: 18px;&quot;&gt;3&lt;/font&gt;" style="text;html=1;align=center;verticalAlign=middle;whiteSpace=wrap;rounded=0;" parent="1" vertex="1">
                    <mxGeometry x="500" y="330" width="60" height="30" as="geometry"/>
                </mxCell>
            </root>
        </mxGraphModel>
    </diagram>
</mxfile>